/vscmnt/brussel_pixiu_data/_data_brussel/112/vsc11236/PredSimResults/SUBJ09mtu3D/weighted-LRposFixed/expIG/worker_02.mot
version=1
nRows=8
nColumns=50
inDegrees=yes
endheader
                time	         pelvis_tilt	         pelvis_list	     pelvis_rotation	           pelvis_tx	           pelvis_ty	           pelvis_tz	       hip_flexion_r	     hip_adduction_r	      hip_rotation_r	        knee_angle_r	       ankle_angle_r	         mtp_angle_r	       hip_flexion_l	     hip_adduction_l	      hip_rotation_l	        knee_angle_l	       ankle_angle_l	         mtp_angle_l	    lumbar_extension	      lumbar_bending	     lumbar_rotation	 ercspn_r/activation	 intobl_r/activation	 extobl_r/activation	    abd_r/activation	    add_r/activation	hamstrings_r/activation	bifemsh_r/activation	glut_max_r/activation	iliopsoas_r/activation	rect_fem_r/activation	  vasti_r/activation	gastroc_r/activation	 soleus_r/activation	tib_ant_r/activation	 ercspn_l/activation	 intobl_l/activation	 extobl_l/activation	    abd_l/activation	    add_l/activation	hamstrings_l/activation	bifemsh_l/activation	glut_max_l/activation	iliopsoas_l/activation	rect_fem_l/activation	  vasti_l/activation	gastroc_l/activation	 soleus_l/activation	tib_ant_l/activation	
          0.63872381	         -7.45765274	          4.44702328	         -7.53993325	          0.74730686	          0.98090054	          0.01254535	        -11.19002936	         -4.62092496	          5.23580975	         -6.86111863	         10.53512881	         27.87275151	         30.97238746	          1.50850144	         -5.17892054	         -2.92536780	          6.23563926	          0.22702299	         -0.53481026	         -3.04026976	          3.52769304	          0.07865059	          0.00999999	          0.00999999	          0.05014043	          0.02802980	          0.01749377	          0.12100943	          0.03913012	          0.49011522	          0.01000000	          0.00999999	          0.31908388	          0.27225954	          0.01471144	          0.08047765	          0.10971261	          0.02972922	          0.01000361	          0.11464112	          0.12283757	          0.19107415	          0.05333387	          0.11525752	          0.00999999	          0.00999999	          0.02539953	          0.01471144	          0.26447842	
          0.65149829	         -7.54092469	          4.38985479	         -7.50733834	          0.76554768	          0.97896322	          0.01227193	        -11.31356366	         -4.57251821	          4.84133085	         -8.45386535	          9.81525805	         29.91042556	         30.99529282	          1.60928975	         -4.95336520	         -4.67358853	          5.83540545	          0.19908416	         -0.23250145	         -3.37241723	          3.63398339	          0.07587109	          0.00999999	          0.00999999	          0.04133902	          0.03001326	          0.01988329	          0.09976803	          0.03226141	          0.46934679	          0.00999999	          0.01636258	          0.29061617	          0.25305834	          0.01212907	          0.06635100	          0.09877209	          0.02451070	          0.04610948	          0.09451758	          0.10887011	          0.15753393	          0.10048022	          0.09502578	          0.00999999	          0.00999999	          0.02094102	          0.01212907	          0.30710381	
          0.66427276	         -7.60586927	          4.32825810	         -7.42625970	          0.78402643	          0.97746022	          0.01190834	        -11.24482032	         -4.50646085	          4.42524646	        -10.42961554	          8.89359987	         32.00954724	         30.82328735	          1.71366790	         -4.75028731	         -6.08650586	          5.24185894	          0.18780614	          0.07374946	         -3.70721628	          3.70840074	          0.09719640	          0.00999999	          0.00999999	          0.03408257	          0.02664267	          0.02252888	          0.08225524	          0.02659840	          0.44733116	          0.01000004	          0.01471144	          0.23960283	          0.21284041	          0.00999999	          0.07002421	          0.08143412	          0.02020821	          0.10589989	          0.10229486	          0.09112904	          0.12988119	          0.14186429	          0.07834541	          0.00999999	          0.00999999	          0.01726513	          0.00999999	          0.34654657	
          0.67704724	         -7.65255228	          4.25904325	         -7.30085090	          0.80244242	          0.97659215	          0.01145528	        -10.89637145	         -4.41666456	          3.99466243	        -12.90361405	          7.75684096	         34.06191067	         30.55747155	          1.83159131	         -4.57184511	         -7.36188596	          4.67831678	          0.15700751	          0.35325728	         -4.04151838	          3.74998610	          0.13082695	          0.00999999	          0.00999999	          0.02809988	          0.04133359	          0.01857428	          0.06781655	          0.02192944	          0.41426453	          0.00999999	          0.01212907	          0.19754412	          0.17547944	          0.00999999	          0.06932048	          0.06713957	          0.01666096	          0.14745441	          0.12623030	          0.07513269	          0.10708248	          0.17909013	          0.06459304	          0.00999999	          0.00999999	          0.01423450	          0.00999999	          0.37321658	
          0.68982172	         -7.67923769	          4.18387448	         -7.13339312	          0.82060046	          0.97643588	          0.01092591	        -10.21504831	         -4.30544315	          3.54922096	        -15.94310039	          6.41408209	         35.86844552	         30.25797088	          1.96064730	         -4.40441534	         -8.63401615	          4.34499291	          0.13470124	          0.58960165	         -4.37706629	          3.75674197	          0.15199312	          0.00999999	          0.00999999	          0.02316737	          0.06306429	          0.02121784	          0.05591237	          0.01808006	          0.36004665	          0.00999999	          0.00999999	          0.16286819	          0.14467664	          0.00999999	          0.07342688	          0.05535422	          0.01373638	          0.16862793	          0.12690219	          0.06349043	          0.08828575	          0.19555010	          0.05325470	          0.00999999	          0.04577011	          0.01173584	          0.00999999	          0.38376266	
          0.70259619	         -7.68590594	          4.09317226	         -6.92577896	          0.83840224	          0.97701009	          0.01035308	         -9.19273454	         -4.16844133	          3.08297002	        -19.53830528	          4.92335354	         37.04231748	         29.89753429	          2.08871387	         -4.23935636	         -9.82153517	          4.14603717	          0.11574892	          0.77695148	         -4.70410584	          3.72704815	          0.16325671	          0.00999999	          0.00999999	          0.01910068	          0.07725196	          0.01940743	          0.04609779	          0.01490637	          0.29684582	          0.00999999	          0.00999999	          0.13427910	          0.11928081	          0.00999999	          0.06053789	          0.04563761	          0.01132516	          0.16837692	          0.10462640	          0.05461178	          0.07278850	          0.18783020	          0.04390663	          0.00999999	          0.11824555	          0.00999999	          0.00999999	          0.38563832	
          0.71537067	         -7.67461690	          3.97576805	         -6.67902459	          0.85580900	          0.97833590	          0.00976875	         -7.85671705	         -4.00415151	          2.59290779	        -23.60822084	          3.30681059	         37.24207877	         29.40942673	          2.20681862	         -4.05655377	        -10.79675038	          4.07435691	          0.09966864	          0.91453420	         -5.01017547	          3.66057749	          0.16731025	          0.00999999	          0.00999999	          0.01574784	          0.08854573	          0.01600075	          0.06013619	          0.01228978	          0.24473896	          0.00999999	          0.00999999	          0.11070840	          0.09834284	          0.00999999	          0.04991136	          0.03762661	          0.00999999	          0.16095449	          0.08626079	          0.05041366	          0.06001156	          0.17123680	          0.03619947	          0.00999999	          0.16826580	          0.01000000	          0.01000000	          0.37845110	
          0.72814515	         -7.64809793	          3.82207572	         -6.39304533	          0.87282731	          0.98036362	          0.00920059	         -6.25583657	         -3.81054615	          2.09783668	        -28.00413148	          1.44619851	         36.47092706	         28.74570793	          2.30613272	         -3.83718072	        -11.47179350	          4.11739351	          0.09002721	          1.00595245	         -5.28461233	          3.55653307	          0.16452325	          0.00999999	          0.00999999	          0.01298354	          0.10220365	          0.01319206	          0.07255716	          0.01013249	          0.20177867	          0.00999999	          0.00999999	          0.09127519	          0.08108022	          0.02700878	          0.04115017	          0.03102182	          0.00999999	          0.15377510	          0.07111899	          0.04739394	          0.04947742	          0.15155329	          0.02984519	          0.00999999	          0.19662165	          0.00999999	          0.00999999	          0.36637606	
